<svg width="48" height="48" viewBox="0 0 48 48" fill="none" xmlns="http://www.w3.org/2000/svg">
<path d="M16.4999 8.73584C18.8587 8.73584 21.161 9.46162 23.0936 10.814C25.0259 12.1662 26.4955 14.0798 27.3036 16.2954C28.1117 18.5114 28.2195 20.9227 27.6112 23.2017C27.0029 25.4805 25.7081 27.5172 23.9032 29.0356L23.2958 29.5474L24.0184 29.8745C26.9917 31.22 29.5508 33.3371 31.4286 36.0063L31.4354 36.0161L31.4432 36.0259C31.589 36.2127 31.6953 36.4276 31.7557 36.6567C31.8162 36.886 31.8296 37.1254 31.7948 37.3599C31.76 37.5943 31.6779 37.8192 31.5536 38.021C31.4292 38.2228 31.265 38.3972 31.0712 38.5337C30.8773 38.6702 30.6576 38.7659 30.4257 38.8149C30.1938 38.864 29.954 38.8661 29.7216 38.8198C29.4892 38.7735 29.2685 38.6795 29.0731 38.5454C28.8778 38.4113 28.7115 38.2388 28.5848 38.0386L28.579 38.0288L28.5721 38.019L28.3114 37.6597C26.984 35.885 25.2724 34.4306 23.3026 33.4067C21.2014 32.3146 18.8679 31.7446 16.4999 31.7446C14.1319 31.7446 11.7983 32.3146 9.69714 33.4067C7.5961 34.4988 5.78925 36.0811 4.42859 38.019L4.42761 38.02C4.26766 38.2497 4.05386 38.4377 3.80554 38.5669C3.55736 38.696 3.2816 38.7629 3.00183 38.7622H2.99792C2.63907 38.7633 2.28891 38.6515 1.99695 38.4429L1.995 38.4419L1.85828 38.3345C1.55451 38.0714 1.34853 37.7104 1.27917 37.311C1.19996 36.8545 1.30489 36.3845 1.57117 36.0054C3.44896 33.3364 6.00823 31.2199 8.98132 29.8745L9.70398 29.5474L9.09656 29.0356C7.29172 27.5172 5.99686 25.4805 5.38855 23.2017C4.78027 20.9227 4.88805 18.5114 5.69617 16.2954C6.50434 14.0796 7.9746 12.1662 9.9071 10.814C11.8397 9.46164 14.1411 8.73586 16.4999 8.73584ZM28.6649 9.18311H28.6659L28.6747 9.18115C29.6848 8.89361 30.7299 8.74779 31.7802 8.74951H31.7831C34.1431 8.74274 36.4479 9.46392 38.3837 10.814C40.3196 12.1641 41.7923 14.0782 42.6014 16.2954C43.4105 18.5125 43.5164 20.925 42.9052 23.2046C42.2939 25.4843 40.9953 27.5207 39.1854 29.0356L38.5751 29.5464L39.2997 29.8745C42.273 31.22 44.832 33.3371 46.7098 36.0063L46.7118 36.0093C46.8452 36.1959 46.94 36.4076 46.9911 36.6313C47.0421 36.855 47.0489 37.087 47.0096 37.313C46.9704 37.5389 46.886 37.7545 46.7626 37.9478C46.6391 38.1411 46.4785 38.3082 46.2899 38.439L46.2841 38.4429C45.992 38.6516 45.642 38.7624 45.2831 38.7612C45.0026 38.7594 44.7262 38.6925 44.4774 38.563C44.2906 38.4658 44.1238 38.3355 43.9833 38.1802L43.8514 38.0171C42.4881 36.0832 40.6809 34.5041 38.5809 33.4136C36.4806 32.3229 34.1487 31.7522 31.7821 31.7495H31.7811C31.3171 31.7495 30.872 31.5658 30.5438 31.2378C30.2156 30.9096 30.0311 30.4636 30.0311 29.9995C30.0312 29.5355 30.2157 29.0903 30.5438 28.7622C30.872 28.4341 31.3171 28.2495 31.7811 28.2495C33.9029 28.2495 35.9381 27.407 37.4384 25.9067C38.9386 24.4065 39.7811 22.3712 39.7811 20.2495C39.781 18.128 38.9384 16.0934 37.4384 14.5933C35.9381 13.093 33.9029 12.2495 31.7811 12.2495C31.05 12.2482 30.3221 12.3497 29.619 12.5503L29.6132 12.5522C29.3908 12.6185 29.1574 12.6395 28.9266 12.6147C28.6959 12.59 28.4727 12.5196 28.2694 12.4077C28.0661 12.2958 27.8864 12.1451 27.7421 11.9634C27.5978 11.7816 27.4915 11.5725 27.4286 11.3491C27.3657 11.1257 27.3476 10.892 27.3759 10.6616C27.4042 10.4313 27.4785 10.2089 27.5936 10.0073C27.7087 9.80579 27.8627 9.62923 28.0468 9.48779C28.2307 9.34643 28.4407 9.2425 28.6649 9.18311ZM18.0604 12.4038C16.5086 12.0952 14.9001 12.2534 13.4384 12.8589C11.9767 13.4644 10.7275 14.4897 9.84851 15.8052C8.96953 17.1207 8.49996 18.6674 8.49988 20.2495C8.49988 22.3711 9.34252 24.4065 10.8427 25.9067C12.3429 27.407 14.3782 28.2495 16.4999 28.2495C18.082 28.2495 19.6287 27.7808 20.9442 26.9019C22.2598 26.0228 23.286 24.7728 23.8915 23.311C24.4968 21.8493 24.6552 20.2406 24.3466 18.689C24.0379 17.1373 23.2758 15.712 22.1571 14.5933C21.0383 13.4744 19.6123 12.7125 18.0604 12.4038Z" fill="#4CAF4F" stroke="#4CAF4F"/>
</svg>
