<svg width="55" height="30" viewBox="0 0 55 30" fill="none" xmlns="http://www.w3.org/2000/svg">
<g clip-path="url(#clip0_1_973)">
<path d="M54.9957 10.6697C55.0015 10.6279 55.0015 10.5858 54.9957 10.5441C55.0011 10.5101 55.0011 10.4755 54.9957 10.4414L54.5883 7.50877C54.5295 7.15792 54.3723 6.82999 54.1344 6.56166L54.0645 6.48178L53.9365 6.35625L46.8829 0.399675L47.0808 0.593678C46.9189 0.403795 46.7157 0.251914 46.4861 0.149222C46.2565 0.0465303 46.0062 -0.00436252 45.7539 0.000298064H43.6122C43.2639 -0.0064666 42.9236 0.102086 42.6461 0.308402C42.3547 0.103328 42.0038 -0.00466859 41.6451 0.000298064H39.5034C39.2225 -0.00416973 38.9454 0.0641735 38.7001 0.198428C38.4549 0.332683 38.2501 0.528082 38.1067 0.764835C37.8855 1.10299 37.8023 1.51041 37.8738 1.90595L38.1416 3.75453C37.9642 3.65597 37.7635 3.60482 37.5596 3.6062H27.1887C26.8166 3.60849 26.4531 3.71541 26.1411 3.91429C25.8395 4.0994 25.5973 4.36447 25.4428 4.67882L24.6396 4.00558C24.3235 3.71884 23.9063 3.56343 23.4757 3.57196H7.20353C6.83012 3.57863 6.46501 3.6809 6.14436 3.86865C5.70569 4.12036 5.38421 4.52965 5.24809 5.00975L0.0801167 21.9552C-0.0164452 22.2344 -0.0259442 22.5355 0.0528362 22.8201C0.131617 23.1046 0.295109 23.3597 0.522426 23.5528C0.581658 23.602 0.643851 23.6477 0.708664 23.6897C0.708664 23.6897 0.603891 23.6212 0.545692 23.5642L7.59931 29.5322C7.89769 29.8015 8.28781 29.952 8.69336 29.9543H25.0936C25.4681 29.9448 25.8335 29.8385 26.1528 29.6462C26.3334 29.5495 26.495 29.422 26.63 29.2696L26.6882 29.1898L26.7813 29.0757L26.8512 28.9501L27.6194 29.6006C27.9135 29.8592 28.2951 30.0015 28.6902 30H45.1253C45.4994 29.9878 45.8641 29.8817 46.1845 29.6919C46.361 29.5892 46.5217 29.4624 46.6618 29.3153L46.7199 29.2354L46.813 29.1214C46.8625 29.0491 46.9055 28.9728 46.941 28.8931C46.9791 28.8239 47.0103 28.7513 47.0342 28.6763L51.7482 13.2029V13.066C51.754 13.0129 51.754 12.9593 51.7482 12.9062V12.8035C51.7539 12.7695 51.7539 12.7349 51.7482 12.7008C51.7535 12.6287 51.7535 12.5562 51.7482 12.484H53.2614C53.393 12.4958 53.5255 12.4958 53.6571 12.484H53.7619C53.8471 12.4591 53.9291 12.4246 54.0063 12.3813H54.1227L54.3322 12.2215L54.4253 12.1531L54.5883 11.9476V11.8792L54.7047 11.6852C54.6982 11.6475 54.6982 11.6089 54.7047 11.5711C54.6985 11.5526 54.6985 11.5326 54.7047 11.5141C54.7294 11.4472 54.7489 11.3785 54.7629 11.3087C54.7575 11.2861 54.7575 11.2627 54.7629 11.2402C54.7572 11.2062 54.7572 11.1715 54.7629 11.1375C54.7629 11.1375 54.9957 10.6925 54.9957 10.6697Z" fill="black"/>
<path d="M23.9529 4.87285C24.0147 4.92763 24.0578 4.99966 24.0765 5.07923C24.0953 5.15881 24.0887 5.24209 24.0577 5.31787L18.9013 22.2519C18.8364 22.4368 18.7036 22.5913 18.5289 22.6855C18.3867 22.7788 18.2222 22.8338 18.0516 22.8453H1.6631C1.52314 22.8387 1.39055 22.7818 1.29063 22.6855C1.23119 22.6316 1.18948 22.5616 1.17081 22.4844C1.15215 22.4071 1.15741 22.3262 1.18588 22.2519L6.35385 5.31787C6.4134 5.13066 6.54206 4.97196 6.71468 4.87285C6.85918 4.78631 7.02294 4.73541 7.1919 4.7245H23.5804C23.7193 4.72581 23.8524 4.77885 23.9529 4.87285ZM15.3978 18.84L18.4823 8.72977H9.84575L6.77286 18.84H15.3978ZM39.5965 5.044C39.6524 5.10771 39.7223 5.15823 39.8009 5.19181C39.8795 5.2254 39.9647 5.24119 40.0505 5.23799H42.1805C42.2616 5.23877 42.3415 5.21927 42.4129 5.18134C42.4841 5.1434 42.5443 5.08828 42.5879 5.02118C42.6257 4.96877 42.6524 4.90944 42.6664 4.84671C42.6804 4.78399 42.6814 4.71915 42.6693 4.65604L42.2503 1.64351C42.2104 1.50409 42.1388 1.37534 42.0408 1.26694C41.9848 1.20324 41.915 1.15272 41.8364 1.11913C41.7578 1.08555 41.6725 1.06977 41.5869 1.07296H39.4568C39.3757 1.07218 39.2957 1.09168 39.2245 1.12962C39.1532 1.16755 39.0929 1.22267 39.0495 1.28977C38.9679 1.44952 38.933 1.55222 38.9679 1.64351L39.3986 4.65604C39.4207 4.80272 39.4901 4.93864 39.5965 5.044ZM46.3591 1.62069C46.3192 1.48126 46.2475 1.35251 46.1496 1.24412C46.096 1.18065 46.0282 1.13014 45.9515 1.0965C45.8748 1.06286 45.7912 1.04699 45.7073 1.05013H43.5656C43.4858 1.04791 43.4069 1.06688 43.3372 1.10505C43.2676 1.14322 43.2097 1.19917 43.1699 1.26694C43.0924 1.36818 43.0589 1.49534 43.0768 1.62069L43.5074 4.63321C43.5344 4.77835 43.603 4.91293 43.7053 5.02118C43.7622 5.08364 43.8322 5.13331 43.9106 5.16679C43.989 5.20027 44.0737 5.21677 44.1592 5.21516H46.3009C46.3805 5.2162 46.4589 5.19672 46.5283 5.15866C46.5978 5.12061 46.6559 5.06534 46.6967 4.99837C46.7372 4.94731 46.7654 4.888 46.7795 4.82482C46.7937 4.76164 46.7931 4.69618 46.7781 4.63321L46.3591 1.62069ZM37.7225 6.18511L37.513 4.70167H27.1887C27.0266 4.71043 26.8698 4.76167 26.7347 4.85002C26.649 4.89585 26.5744 4.95937 26.5161 5.0362C26.4579 5.11304 26.4173 5.20135 26.3972 5.29505L25.5359 8.12497C25.5015 8.1957 25.4897 8.27505 25.5022 8.35245C25.5147 8.42985 25.5508 8.5017 25.6057 8.55862C25.7039 8.64907 25.832 8.7018 25.9666 8.70697H38.514L35.4295 18.8172H22.917C22.7556 18.8208 22.5985 18.8682 22.4631 18.9541C22.2984 19.0566 22.1782 19.2151 22.1255 19.3991L21.2525 22.2291C21.224 22.3017 21.2165 22.3806 21.2309 22.4571C21.2453 22.5337 21.2809 22.6048 21.334 22.6627C21.4291 22.7592 21.5582 22.8163 21.6948 22.8224H38.1299C38.2999 22.8081 38.4637 22.7533 38.6071 22.6627C38.779 22.568 38.9079 22.4131 38.9679 22.2291L43.6936 6.75567H38.3743C38.2899 6.7573 38.2061 6.74194 38.1281 6.71053C38.05 6.67913 37.9793 6.63234 37.9204 6.57308C37.8242 6.4696 37.7561 6.34402 37.7225 6.20794V6.18511Z" fill="white"/>
</g>
<defs>
<clipPath id="clip0_1_973">
<rect width="55" height="30" fill="white"/>
</clipPath>
</defs>
</svg>
